# xmcd CD database file
# Copyright (C) 1997 Ti Kan
#
# Track frame offsets:
#  150
#  14110
#  27562
#  45267
#  57420
#  75327
#  89215
#  103652
#  117922
#  136975
#
# Disc length: 2131 seconds
#
# Revision: 1
# Processed by: cddbd v1.4b41PL1 Copyright (c) Steve Scherf et al.
# Submitted via: CDWizzard Release:4.31
#
DISCID=8408510a
DTITLE=Mustard Seed Faith - Sail On Sailor
DYEAR=1900
DGENRE=
TTITLE0=The Question
TTITLE1=Let Go
TTITLE2=Can't Work Your Way to Heaven (Let Him)
TTITLE3=Once I Had a Dream
TTITLE4=Dried Up Well
TTITLE5=Sail On Sailor
TTITLE6=Lighter Side of Darkness
TTITLE7=Sweet Jesus Morning
TTITLE8=More than Sunlight
TTITLE9=Back Home
EXTD=
EXTT0=
EXTT1=
EXTT2=
EXTT3=
EXTT4=
EXTT5=
EXTT6=
EXTT7=
EXTT8=
EXTT9=
PLAYORDER=
